<?xml version="1.0" standalone="no"?>
<!DOCTYPE svg PUBLIC "-//W3C//DTD SVG 20010904//EN"
 "http://www.w3.org/TR/2001/REC-SVG-20010904/DTD/svg10.dtd">
<svg version="1.0" xmlns="http://www.w3.org/2000/svg"
 width="512.000000pt" height="512.000000pt" viewBox="0 0 512.000000 512.000000"
 preserveAspectRatio="xMidYMid meet">

<g transform="translate(0.000000,512.000000) scale(0.100000,-0.100000)"
fill="#000000" stroke="none">
<path d="M2383 4305 c-431 -78 -773 -421 -848 -851 -45 -261 14 -533 169 -764
43 -64 170 -194 246 -250 361 -267 863 -265 1224 4 173 129 296 294 365 491
153 433 6 908 -368 1184 -217 161 -524 234 -788 186z"/>
<path d="M1620 2370 c-304 -183 -576 -483 -721 -797 -84 -181 -150 -415 -153
-539 -1 -79 10 -100 69 -133 28 -15 171 -16 1745 -16 1574 0 1717 1 1745 16
59 33 70 54 69 133 -3 124 -69 358 -153 539 -148 320 -445 643 -749 814 l-59
33 -64 -56 c-319 -276 -757 -364 -1162 -234 -149 48 -298 130 -404 224 -84 73
-71 72 -163 16z"/>
</g>
</svg>
